<svg width="351" height="240" viewBox="0 0 351 240" fill="none" xmlns="http://www.w3.org/2000/svg">
<path d="M276.105 128C283.387 143.131 287.745 149.681 299.605 154.5" stroke="#FFB967" stroke-width="17"/>
<path d="M257.742 140C261.339 156.027 267.1 166.664 277.605 174.5" stroke="#FFB967" stroke-width="17"/>
<rect x="91.1049" y="49" width="144" height="142" rx="20" stroke="#333274" stroke-width="19"/>
<path fill-rule="evenodd" clip-rule="evenodd" d="M197.149 114.362C200.664 117.539 200.664 123.057 197.149 126.233L151.058 167.885C146.346 172.143 139.074 171.775 134.815 167.063C130.557 162.351 130.925 155.079 135.637 150.82L162.845 126.233C166.36 123.057 166.36 117.539 162.845 114.362L135.637 89.7749C130.925 85.5166 130.557 78.2445 134.815 73.5323C139.074 68.82 146.346 68.4521 151.058 72.7104L197.149 114.362Z" fill="#FFB967"/>
<path d="M57.272 64.7684C67.9827 65.3941 75.3905 65.9569 84.0698 70.5823H90.1048V155.603C79.3149 157.432 39.6048 163.5 36.3086 133.662C33.5988 109.133 49.4395 103.287 56.3029 98.5573C57.2199 97.9253 57.5722 96.7783 57.2983 95.6988C55.2643 87.6802 53.1024 81.7089 50.2123 74.7067C48.1994 69.8297 52.005 64.4607 57.272 64.7684Z" stroke="#333274" stroke-width="16"/>
<path d="M91.0001 181.5C78 198 49 192.5 52.8566 174.737C56.938 155.938 64.2614 156.481 91.0001 158.5V181.5Z" stroke="#333274" stroke-width="16"/>
<path d="M236.105 180.879V140.668C276.105 148 278.605 101 304.403 115.393C334.236 132.037 287.605 194 236.105 180.879Z" stroke="#333274" stroke-width="16"/>
</svg>
